<svg width="129" height="113" viewBox="0 0 129 113" fill="none" xmlns="http://www.w3.org/2000/svg">
<path d="M128.5 112.805H0V16.21H128.5V112.805ZM4.5 108.206H124V20.8097H4.5V108.206Z" fill="#72C02C"/>
<path d="M128.5 20.8103H0V0.244141H128.5V20.8103ZM4.5 16.2105H124V4.84393H4.5V16.2105Z" fill="#72C02C"/>
<path d="M44.49 18.5103H39.99V110.505H44.49V18.5103Z" fill="#72C02C"/>
<path d="M34.74 8.22656H29.74V12.8264H34.74V8.22656Z" fill="#72C02C"/>
<path d="M24.74 8.22656H19.74V12.8264H24.74V8.22656Z" fill="#72C02C"/>
<path d="M14.74 8.22656H9.73999V12.8264H14.74V8.22656Z" fill="#72C02C"/>
<path d="M78.5 41.2529H64V26.4316H78.5V41.2529ZM68.5 36.6532H74V31.0314H68.5V36.6532Z" fill="#72C02C"/>
<path d="M98.5 41.2529H84V26.4316H98.5V41.2529ZM88.5 36.6532H94V31.0314H88.5V36.6532Z" fill="#72C02C"/>
<path d="M118.5 41.2529H104V26.4316H118.5V41.2529ZM108.5 36.6532H114V31.0314H108.5V36.6532Z" fill="#72C02C"/>
<path d="M118.5 61.6968H64V46.8755H118.5V61.6968ZM68.5 57.0971H114V51.4752H68.5V57.0971Z" fill="#72C02C"/>
<path d="M118.5 82.1404H64V67.3188H118.5V82.1404ZM68.5 77.5406H114V71.9186H68.5V77.5406Z" fill="#72C02C"/>
<path d="M88.5 102.583H64V87.7622H88.5V102.583ZM68.5 97.9838H84V92.3619H68.5V97.9838Z" fill="#72C02C"/>
<path d="M59.24 97.4727H49.99V31.5425H59.24V36.1423H54.49V92.8729H59.24V97.4727Z" fill="#72C02C"/>
<path d="M59.24 51.9863H52.24V56.5862H59.24V51.9863Z" fill="#72C02C"/>
<path d="M59.24 72.4297H52.24V77.0298H59.24V72.4297Z" fill="#72C02C"/>
<path d="M118.74 92.873H113.74V97.4727H118.74V92.873Z" fill="#72C02C"/>
<path d="M108.74 92.873H103.74V97.4727H108.74V92.873Z" fill="#72C02C"/>
<path d="M98.74 92.873H93.74V97.4727H98.74V92.873Z" fill="#72C02C"/>
<path d="M34.74 57.0972H9.73999V61.6968H34.74V57.0972Z" fill="#72C02C"/>
<path d="M34.74 67.3188H9.73999V71.9185H34.74V67.3188Z" fill="#72C02C"/>
<path d="M34.74 77.54H9.73999V82.1404H34.74V77.54Z" fill="#72C02C"/>
<path d="M34.74 87.7622H9.73999V92.3618H34.74V87.7622Z" fill="#72C02C"/>
<path d="M34.74 97.9839H9.73999V102.583H34.74V97.9839Z" fill="#72C02C"/>
<path d="M34.5 51.4749H10V26.4316H34.5V51.4749ZM14.5 46.8751H30V31.0314H14.5V46.8751Z" fill="#72C02C"/>
</svg>
