<svg width="130" height="112" viewBox="0 0 130 112" fill="none" xmlns="http://www.w3.org/2000/svg">
<path d="M129.5 111.055H0V16.3096H129.5V111.055ZM4.5 106.455H125V20.9093H4.5V106.455Z" fill="#72C02C"/>
<path d="M129.5 20.9094H0V0.333008H129.5V20.9094ZM4.5 16.3096H125V4.9328H4.5V16.3096Z" fill="#72C02C"/>
<path d="M35.5801 8.31641H30.5801V12.9163H35.5801V8.31641Z" fill="#72C02C"/>
<path d="M25.5801 8.31641H20.5801V12.9163H25.5801V8.31641Z" fill="#72C02C"/>
<path d="M15.5801 8.31641H10.5801V12.9163H15.5801V8.31641Z" fill="#72C02C"/>
<path d="M71.5 69.5742H67V74.6853H71.5V69.5742Z" fill="#72C02C"/>
<path d="M71.5 79.7964H67V84.9072H71.5V79.7964Z" fill="#72C02C"/>
<path d="M71.5 90.0181H67V95.1287H71.5V90.0181Z" fill="#72C02C"/>
<path d="M54.49 108.754H49.99V58.2184H44.49V108.754H39.99V53.6187H54.49V108.754Z" fill="#72C02C"/>
<path d="M69 58.2085H22.5V46.4535H24.75C26.0098 46.4535 27.218 45.9419 28.1088 45.0314C28.9996 44.1208 29.5 42.8859 29.5 41.5982V39.2983H69V58.2085ZM27 53.6087H64.5V43.8981H33.72C33.3092 45.5568 32.4681 47.0714 31.2854 48.2821C30.1026 49.4929 28.6221 50.3549 27 50.7773V53.6087Z" fill="#72C02C"/>
<path d="M98.0001 108.755H93.5001V65.7111L94.9401 65.1387C96.8829 64.3866 98.595 63.1196 99.9008 61.4679C101.206 59.8162 102.059 57.8391 102.37 55.7396C102.682 53.64 102.441 51.4935 101.673 49.5203C100.905 47.5472 99.6375 45.8184 98.0001 44.5114V55.2134H83.5001V44.5114C81.8654 45.8194 80.6 47.5478 79.8332 49.5198C79.0664 51.4918 78.8258 53.6366 79.1361 55.7348C79.4463 57.833 80.2963 59.8094 81.5989 61.4617C82.9016 63.114 84.6102 64.3829 86.5501 65.1387L88.0001 65.7111V108.755H83.5001V68.7878C80.8782 67.4588 78.6567 65.4298 77.0708 62.9157C75.4848 60.4016 74.5934 57.4959 74.4909 54.5063C74.3884 51.5166 75.0787 48.5544 76.4886 45.9329C77.8985 43.3115 79.9757 41.1286 82.5001 39.6152L83.0301 39.2983H87.9601V50.6137H93.4601V39.2983H98.3901L98.9101 39.6152C101.44 41.122 103.523 43.3003 104.939 45.9194C106.355 48.5385 107.052 51.5005 106.954 54.4914C106.857 57.4822 105.969 60.3904 104.386 62.9074C102.802 65.4244 100.582 67.4564 97.9601 68.7878L98.0001 108.755Z" fill="#72C02C"/>
</svg>
