<svg width="97" height="100" viewBox="0 0 97 100" fill="none" xmlns="http://www.w3.org/2000/svg">
<path d="M93.7929 56.2929H84.3786V53.0786H93.7929L93.75 18.75L3.17143 18.7929L3.21429 53.1286L9.42143 53.0786V56.2929H3.17143C2.33155 56.2929 1.52595 55.9597 0.931397 55.3665C0.336843 54.7733 0.00189162 53.9685 0 53.1286V18.75C0 18.3336 0.0820149 17.9211 0.241394 17.5364C0.400773 17.1516 0.634374 16.802 0.928868 16.5075C1.22336 16.213 1.57301 15.9794 1.95779 15.82C2.34257 15.6606 2.75495 15.5786 3.17143 15.5786H93.7929C94.634 15.5786 95.4407 15.9127 96.0354 16.5075C96.6302 17.1022 96.9643 17.9089 96.9643 18.75V53.1286C96.9587 53.9674 96.6225 54.77 96.0288 55.3624C95.435 55.9548 94.6316 56.2892 93.7929 56.2929Z" fill="#72C02C"/>
<path d="M62.4999 53.0786H34.3784V56.2929H62.4999V53.0786Z" fill="#72C02C"/>
<path d="M64.1143 68.75H60.9357V45.3143C60.911 44.6774 61.015 44.042 61.2417 43.4463C61.4684 42.8506 61.8129 42.3067 62.2548 41.8474C62.6967 41.388 63.2267 41.0226 63.8132 40.7729C64.3996 40.5233 65.0305 40.3947 65.6678 40.3947C66.3052 40.3947 66.9361 40.5233 67.5225 40.7729C68.109 41.0226 68.639 41.388 69.0809 41.8474C69.5227 42.3067 69.8673 42.8506 70.094 43.4463C70.3206 44.042 70.4247 44.6774 70.4 45.3143V60.9357H67.1857V45.3143C67.1864 44.9103 67.0272 44.5226 66.7428 44.2357C66.4527 43.963 66.0696 43.8111 65.6714 43.8111C65.2733 43.8111 64.8901 43.963 64.6 44.2357C64.4588 44.376 64.3469 44.5429 64.2709 44.7269C64.1948 44.9108 64.1562 45.1081 64.1571 45.3071L64.1143 68.75Z" fill="#72C02C"/>
<path d="M76.6505 60.9357H73.4362V55.4357C73.4364 55.2367 73.3974 55.0397 73.3214 54.8559C73.2454 54.672 73.1339 54.505 72.9934 54.3642C72.7033 54.0915 72.3201 53.9397 71.9219 53.9397C71.5238 53.9397 71.1406 54.0915 70.8505 54.3642C70.7099 54.505 70.5985 54.672 70.5225 54.8559C70.4465 55.0397 70.4075 55.2367 70.4076 55.4357V60.9714H67.1934V55.4357C67.2598 54.2265 67.787 53.0888 68.6665 52.2563C69.546 51.4239 70.7109 50.96 71.9219 50.96C73.1329 50.96 74.2979 51.4239 75.1774 52.2563C76.0569 53.0888 76.584 54.2265 76.6505 55.4357V60.9357Z" fill="#72C02C"/>
<path d="M82.8646 60.9358H79.6503V55.4357C79.6505 55.2368 79.6115 55.0398 79.5355 54.8559C79.4595 54.6721 79.3481 54.5051 79.2075 54.3643C78.9174 54.0916 78.5342 53.9398 78.136 53.9398C77.7379 53.9398 77.3547 54.0916 77.0646 54.3643C76.7912 54.6532 76.6423 55.038 76.6503 55.4357V60.9715H73.436V55.4357C73.4836 54.2125 74.0029 53.0552 74.8852 52.2066C75.7674 51.358 76.944 50.8839 78.1682 50.8839C79.3923 50.8839 80.5689 51.358 81.4512 52.2066C82.3334 53.0552 82.8528 54.2125 82.9003 55.4357L82.8646 60.9358Z" fill="#72C02C"/>
<path d="M84.4288 89.0643H81.2145V84.0643L85.9002 71.5643V57.8143C85.9009 57.4104 85.7417 57.0226 85.4574 56.7358C85.1673 56.463 84.7841 56.3112 84.386 56.3112C83.9878 56.3112 83.6046 56.463 83.3145 56.7358C83.1733 56.876 83.0614 57.043 82.9854 57.227C82.9093 57.4109 82.8707 57.6081 82.8717 57.8072V60.9286H79.6574V57.8072C79.6326 57.1703 79.7367 56.5349 79.9633 55.9392C80.19 55.3435 80.5346 54.7997 80.9764 54.3403C81.4183 53.8809 81.9484 53.5155 82.5348 53.2659C83.1213 53.0162 83.7521 52.8876 84.3895 52.8876C85.0269 52.8876 85.6577 53.0162 86.2442 53.2659C86.8306 53.5155 87.3607 53.8809 87.8026 54.3403C88.2444 54.7997 88.589 55.3435 88.8157 55.9392C89.0423 56.5349 89.1464 57.1703 89.1217 57.8072V72.1572L84.436 84.6572L84.4288 89.0643Z" fill="#72C02C"/>
<path d="M65.6786 89.0643H62.4643V85.0214C60.6929 83.1428 54.6501 76.2785 54.6501 70.35V64.0643C54.6253 63.4274 54.7294 62.792 54.956 62.1963C55.1827 61.6006 55.5273 61.0567 55.9692 60.5974C56.411 60.138 56.941 59.7726 57.5275 59.5229C58.114 59.2733 58.7448 59.1447 59.3822 59.1447C60.0196 59.1447 60.6504 59.2733 61.2369 59.5229C61.8234 59.7726 62.3534 60.138 62.7952 60.5974C63.2371 61.0567 63.5817 61.6006 63.8083 62.1963C64.035 62.792 64.1391 63.4274 64.1143 64.0643H60.9358C60.9364 63.6603 60.7772 63.2726 60.4929 62.9857C60.2028 62.713 59.8196 62.5611 59.4215 62.5611C59.0233 62.5611 58.6402 62.713 58.3501 62.9857C58.2088 63.126 58.097 63.2929 58.0209 63.4769C57.9449 63.6608 57.9062 63.8581 57.9072 64.0571V70.3428C57.9072 74.8785 63.2072 81.1857 65.25 83.2L65.7215 83.6643L65.6786 89.0643Z" fill="#72C02C"/>
<path d="M85.986 100H82.7718V90.6286L64.0718 90.6714L64.1146 100H60.936V90.6286C60.936 89.7875 61.2702 88.9808 61.8649 88.386C62.4597 87.7913 63.2664 87.4572 64.1075 87.4572H82.8575C83.2739 87.4562 83.6864 87.5376 84.0712 87.6968C84.456 87.8559 84.8055 88.0896 85.0996 88.3844C85.3937 88.6792 85.6266 89.0292 85.7849 89.4143C85.9431 89.7995 86.0236 90.2122 86.0218 90.6286L85.986 100Z" fill="#72C02C"/>
<path d="M35.9931 68.7502H32.7788V48.4359C32.7765 48.0332 32.6147 47.648 32.3288 47.3644C32.0404 47.0885 31.6566 46.9345 31.2574 46.9345C30.8582 46.9345 30.4744 47.0885 30.1859 47.3644C30.0454 47.5052 29.9339 47.6722 29.8579 47.8561C29.7819 48.0399 29.7429 48.2369 29.7431 48.4359V60.9359H26.5288V48.4359C26.5763 47.2126 27.0957 46.0553 27.978 45.2067C28.8602 44.3581 30.0368 43.884 31.261 43.884C32.4851 43.884 33.6617 44.3581 34.5439 45.2067C35.4262 46.0553 35.9456 47.2126 35.9931 48.4359V68.7502Z" fill="#72C02C"/>
<path d="M29.7431 60.9357H26.5288V45.3143C26.5268 44.9095 26.3651 44.5219 26.0788 44.2357C25.7895 43.9614 25.406 43.8085 25.0074 43.8085C24.6087 43.8085 24.2252 43.9614 23.9359 44.2357C23.7947 44.376 23.6828 44.543 23.6068 44.7269C23.5308 44.9109 23.4921 45.1081 23.4931 45.3071V60.9357H20.2788V45.3143C20.3263 44.0911 20.8457 42.9337 21.728 42.0851C22.6102 41.2364 23.7868 40.7625 25.011 40.7625C26.2351 40.7625 27.4117 41.2364 28.2939 42.0851C29.1762 42.9337 29.6956 44.0911 29.7431 45.3143V60.9357Z" fill="#72C02C"/>
<path d="M23.4931 60.9359H20.2788V48.4359C20.2765 48.0332 20.1147 47.648 19.8288 47.3644C19.5404 47.0885 19.1566 46.9345 18.7574 46.9345C18.3582 46.9345 17.9744 47.0885 17.6859 47.3644C17.5454 47.5052 17.4339 47.6722 17.3579 47.8561C17.2819 48.0399 17.2429 48.2369 17.2431 48.4359V60.9359H14.0288V48.4359C14.0763 47.2126 14.5957 46.0553 15.478 45.2067C16.3602 44.3581 17.5368 43.884 18.761 43.884C19.9851 43.884 21.1617 44.3581 22.0439 45.2067C22.9262 46.0553 23.4456 47.2126 23.4931 48.4359V60.9359Z" fill="#72C02C"/>
<path d="M15.6788 89.0643H12.4645V84.6643L7.77881 72.1643V51.5643C7.82634 50.3411 8.34571 49.1837 9.22796 48.3351C10.1102 47.4864 11.2868 47.0125 12.511 47.0125C13.7351 47.0125 14.9117 47.4864 15.7939 48.3351C16.6762 49.1837 17.1956 50.3411 17.2431 51.5643V60.9357H14.0288V51.5643C14.0268 51.1595 13.8651 50.7719 13.5788 50.4857C13.2895 50.2114 12.906 50.0585 12.5074 50.0585C12.1087 50.0585 11.7252 50.2114 11.4359 50.4857C11.2947 50.626 11.1828 50.793 11.1068 50.9769C11.0308 51.1609 10.9921 51.3581 10.9931 51.5571V71.5571L15.6788 84.0571V89.0643Z" fill="#72C02C"/>
<path d="M34.4286 89.0643H31.2144V83.7072L31.6858 83.2428C33.7286 81.1928 39.0286 74.8857 39.0286 70.3857V64.1C39.0267 63.6952 38.8649 63.3076 38.5786 63.0214C38.2894 62.7471 37.9059 62.5942 37.5072 62.5942C37.1085 62.5942 36.7251 62.7471 36.4358 63.0214C36.2946 63.1617 36.1827 63.3287 36.1066 63.5126C36.0306 63.6966 35.992 63.8938 35.9929 64.0928H32.7786C32.8262 62.8696 33.3455 61.7123 34.2278 60.8637C35.11 60.0151 36.2866 59.541 37.5108 59.541C38.7349 59.541 39.9115 60.0151 40.7938 60.8637C41.676 61.7123 42.1954 62.8696 42.2429 64.0928V70.3786C42.2429 76.3071 36.2001 83.1714 34.4286 85.05V89.0643Z" fill="#72C02C"/>
<path d="M35.9932 100H32.7789V90.6286L14.0718 90.6714L14.1146 100H10.936V90.6286C10.936 90.2121 11.0181 89.7997 11.1774 89.4149C11.3368 89.0301 11.5705 88.6805 11.8649 88.386C12.1594 88.0915 12.5091 87.8579 12.8938 87.6985C13.2786 87.5392 13.691 87.4572 14.1075 87.4572H32.8575C33.274 87.4572 33.6863 87.5392 34.0711 87.6985C34.4559 87.8579 34.8055 88.0915 35.1 88.386C35.3945 88.6805 35.6281 89.0301 35.7875 89.4149C35.9469 89.7997 36.0289 90.2121 36.0289 90.6286L35.9932 100Z" fill="#72C02C"/>
<path d="M50.0499 17.1857H46.8356V14.0643C46.8366 13.8653 46.7979 13.668 46.7219 13.4841C46.6459 13.3001 46.534 13.1331 46.3928 12.9929C46.2538 12.8494 46.0872 12.7355 45.9031 12.6582C45.719 12.5808 45.5211 12.5416 45.3213 12.5429H35.9356C34.7124 12.4953 33.5551 11.976 32.7065 11.0937C31.8578 10.2115 31.3838 9.03487 31.3838 7.81072C31.3838 6.58656 31.8578 5.40997 32.7065 4.52772C33.5551 3.64547 34.7124 3.1261 35.9356 3.07857H54.6856C55.0879 3.07858 55.4738 2.91924 55.7589 2.63546C56.044 2.35168 56.2052 1.96656 56.2071 1.56429V0H59.4213V1.56429C59.4213 2.18585 59.2988 2.8013 59.0607 3.37546C58.8226 3.94963 58.4737 4.47123 58.0338 4.91041C57.594 5.34959 57.0719 5.69776 56.4974 5.93497C55.9228 6.17219 55.3072 6.2938 54.6856 6.29286H35.9356C35.7359 6.29161 35.538 6.33083 35.3538 6.40817C35.1697 6.48551 35.0031 6.59938 34.8642 6.74286C34.6521 6.95464 34.5077 7.22457 34.4492 7.51849C34.3906 7.81241 34.4206 8.11709 34.5353 8.39395C34.6501 8.67081 34.8444 8.90742 35.0936 9.07379C35.3429 9.24017 35.6359 9.32884 35.9356 9.32857H45.3142C45.9358 9.32857 46.5512 9.45112 47.1254 9.6892C47.6995 9.92728 48.2211 10.2762 48.6603 10.7161C49.0995 11.1559 49.4477 11.678 49.6849 12.2526C49.9221 12.8271 50.0437 13.4427 50.0428 14.0643L50.0499 17.1857Z" fill="#72C02C"/>
<path d="M12.4998 21.8286H9.37842V25.0429H12.4998V21.8286Z" fill="#72C02C"/>
<path d="M18.7498 21.8286H15.6284V25.0429H18.7498V21.8286Z" fill="#72C02C"/>
<path d="M24.9998 21.8286H21.8784V25.0429H24.9998V21.8286Z" fill="#72C02C"/>
<path d="M31.2499 21.8286H28.1284V25.0429H31.2499V21.8286Z" fill="#72C02C"/>
<path d="M37.4998 21.8286H34.3784V25.0429H37.4998V21.8286Z" fill="#72C02C"/>
<path d="M43.7498 21.8286H40.6284V25.0429H43.7498V21.8286Z" fill="#72C02C"/>
<path d="M49.9998 21.8286H46.8784V25.0429H49.9998V21.8286Z" fill="#72C02C"/>
<path d="M56.2498 21.8286H53.1284V25.0429H56.2498V21.8286Z" fill="#72C02C"/>
<path d="M62.4998 21.8286H59.3784V25.0429H62.4998V21.8286Z" fill="#72C02C"/>
<path d="M68.7498 21.8286H65.6284V25.0429H68.7498V21.8286Z" fill="#72C02C"/>
<path d="M74.9998 21.8286H71.8784V25.0429H74.9998V21.8286Z" fill="#72C02C"/>
<path d="M81.2498 21.8286H78.1284V25.0429H81.2498V21.8286Z" fill="#72C02C"/>
<path d="M87.4998 21.8286H84.3784V25.0429H87.4998V21.8286Z" fill="#72C02C"/>
<path d="M9.37875 28.0786H6.25732V31.2929H9.37875V28.0786Z" fill="#72C02C"/>
<path d="M15.6288 28.0786H12.5073V31.2929H15.6288V28.0786Z" fill="#72C02C"/>
<path d="M21.8788 28.0786H18.7573V31.2929H21.8788V28.0786Z" fill="#72C02C"/>
<path d="M28.1288 28.0786H25.0073V31.2929H28.1288V28.0786Z" fill="#72C02C"/>
<path d="M34.3783 28.0786H31.2568V31.2929H34.3783V28.0786Z" fill="#72C02C"/>
<path d="M40.6283 28.0786H37.5068V31.2929H40.6283V28.0786Z" fill="#72C02C"/>
<path d="M46.8783 28.0786H43.7568V31.2929H46.8783V28.0786Z" fill="#72C02C"/>
<path d="M53.1283 28.0786H50.0068V31.2929H53.1283V28.0786Z" fill="#72C02C"/>
<path d="M59.3783 28.0786H56.2568V31.2929H59.3783V28.0786Z" fill="#72C02C"/>
<path d="M65.6283 28.0786H62.5068V31.2929H65.6283V28.0786Z" fill="#72C02C"/>
<path d="M71.8783 28.0786H68.7568V31.2929H71.8783V28.0786Z" fill="#72C02C"/>
<path d="M78.1283 28.0786H75.0068V31.2929H78.1283V28.0786Z" fill="#72C02C"/>
<path d="M84.3788 28.0786H81.2573V31.2929H84.3788V28.0786Z" fill="#72C02C"/>
<path d="M90.6288 28.0786H87.5073V31.2929H90.6288V28.0786Z" fill="#72C02C"/>
<path d="M12.4998 34.3286H9.37842V37.5429H12.4998V34.3286Z" fill="#72C02C"/>
<path d="M18.7498 34.3286H15.6284V37.5429H18.7498V34.3286Z" fill="#72C02C"/>
<path d="M24.9998 34.3286H21.8784V37.5429H24.9998V34.3286Z" fill="#72C02C"/>
<path d="M31.2499 34.3286H28.1284V37.5429H31.2499V34.3286Z" fill="#72C02C"/>
<path d="M37.4998 34.3286H34.3784V37.5429H37.4998V34.3286Z" fill="#72C02C"/>
<path d="M43.7498 34.3286H40.6284V37.5429H43.7498V34.3286Z" fill="#72C02C"/>
<path d="M49.9998 34.3286H46.8784V37.5429H49.9998V34.3286Z" fill="#72C02C"/>
<path d="M56.2498 34.3286H53.1284V37.5429H56.2498V34.3286Z" fill="#72C02C"/>
<path d="M62.4998 34.3286H59.3784V37.5429H62.4998V34.3286Z" fill="#72C02C"/>
<path d="M68.7498 34.3286H65.6284V37.5429H68.7498V34.3286Z" fill="#72C02C"/>
<path d="M74.9998 34.3286H71.8784V37.5429H74.9998V34.3286Z" fill="#72C02C"/>
<path d="M81.2498 34.3286H78.1284V37.5429H81.2498V34.3286Z" fill="#72C02C"/>
<path d="M87.4998 34.3286H84.3784V37.5429H87.4998V34.3286Z" fill="#72C02C"/>
<path d="M9.37875 40.5786H6.25732V43.7929H9.37875V40.5786Z" fill="#72C02C"/>
<path d="M15.6288 40.5786H12.5073V43.7929H15.6288V40.5786Z" fill="#72C02C"/>
<path d="M40.6283 40.5786H37.5068V43.7929H40.6283V40.5786Z" fill="#72C02C"/>
<path d="M46.8783 40.5786H43.7568V43.7929H46.8783V40.5786Z" fill="#72C02C"/>
<path d="M53.1283 40.5786H50.0068V43.7929H53.1283V40.5786Z" fill="#72C02C"/>
<path d="M59.3783 40.5786H56.2568V43.7929H59.3783V40.5786Z" fill="#72C02C"/>
<path d="M84.3788 40.5786H81.2573V43.7929H84.3788V40.5786Z" fill="#72C02C"/>
<path d="M78.1283 40.5786H75.0068V43.7929H78.1283V40.5786Z" fill="#72C02C"/>
<path d="M90.6288 40.5786H87.5073V43.7929H90.6288V40.5786Z" fill="#72C02C"/>
<path d="M56.2498 46.8286H40.6284V50.0429H56.2498V46.8286Z" fill="#72C02C"/>
</svg>
