<svg width="116" height="95" viewBox="0 0 116 95" fill="none" xmlns="http://www.w3.org/2000/svg">
<path d="M115.652 95H19.6196V30.9783H115.652V95ZM22.7175 91.9575H112.554V34.0208H22.7175V91.9575Z" fill="#72C02C"/>
<path d="M115.652 34.076H19.6196V20.6521H115.652V34.076ZM22.7175 31.0751H112.554V23.653H22.7175V31.0751Z" fill="#72C02C"/>
<path d="M44.402 26H41.3042V29.0978H44.402V26Z" fill="#72C02C"/>
<path d="M38.2067 26H35.1089V29.0978H38.2067V26Z" fill="#72C02C"/>
<path d="M32.0109 26H28.9131V29.0978H32.0109V26Z" fill="#72C02C"/>
<path d="M16.966 85.7065H10.3262V9.29346H105.326V16.0468H102.262V12.4104H13.3907V82.5896H16.966V85.7065Z" fill="#72C02C"/>
<path d="M6.63978 75.3804H0V0H95V6.66207H91.9355V3.0748H3.06452V72.3056H6.63978V75.3804Z" fill="#72C02C"/>
</svg>
