<svg width="113" height="97" viewBox="0 0 113 97" fill="none" xmlns="http://www.w3.org/2000/svg">
<path d="M67.2471 96.542H34.7461V85.7976H38.2908V92.9973H63.7024V85.7976H67.2471V96.542Z" fill="#72C02C"/>
<path d="M73.7458 92.9973H28.2554V96.542H73.7458V92.9973Z" fill="#72C02C"/>
<path d="M102.009 70.2482H2.37998e-05V5.24619C-0.00205621 4.55667 0.132222 3.87355 0.39513 3.23612C0.658038 2.59868 1.0444 2.01953 1.53196 1.53196C2.01953 1.0444 2.59868 0.658038 3.23612 0.39513C3.87355 0.132222 4.55667 -0.00205621 5.24619 2.37998e-05H96.7626C97.4516 2.37998e-05 98.1338 0.135741 98.7703 0.399385C99.4068 0.66303 99.9851 1.04945 100.472 1.5366C100.959 2.02375 101.346 2.60207 101.609 3.23857C101.873 3.87506 102.009 4.55726 102.009 5.24619V70.2482ZM3.54473 66.7035H98.4641V5.26196C98.4626 4.80694 98.2814 4.37093 97.96 4.04888C97.6402 3.73558 97.2103 3.56023 96.7626 3.5605H5.24619C5.02246 3.55946 4.80075 3.60275 4.59384 3.68788C4.38694 3.77302 4.19896 3.89832 4.04075 4.05652C3.88255 4.21473 3.75725 4.40271 3.67211 4.60961C3.58698 4.81652 3.54369 5.03823 3.54473 5.26196V66.7035Z" fill="#72C02C"/>
<path d="M96.7626 81.8355H5.24617C3.8548 81.8355 2.52043 81.2827 1.53658 80.2989C0.552731 79.315 0 77.9807 0 76.5893V66.7035H102.009V76.5814C102.007 77.9722 101.453 79.3054 100.47 80.2887C99.4865 81.2721 98.1534 81.8255 96.7626 81.8276V81.8355ZM3.54471 70.2561V76.5578C3.54678 77.0084 3.72671 77.44 4.04534 77.7586C4.36398 78.0773 4.79555 78.2572 5.24617 78.2593H96.7626C96.9843 78.2622 97.2041 78.2196 97.4087 78.1343C97.6133 78.0489 97.7982 77.9226 97.9521 77.763C98.1142 77.607 98.2431 77.4198 98.3311 77.2127C98.4191 77.0056 98.4643 76.7828 98.4641 76.5578V70.2561H3.54471Z" fill="#72C02C"/>
<circle cx="94.7993" cy="72.8975" r="18" fill="white"/>
<path fill-rule="evenodd" clip-rule="evenodd" d="M95.2921 60.4701C91.9961 60.4701 88.8352 61.7794 86.5046 64.11C84.174 66.4406 82.8647 69.6016 82.8647 72.8975C82.8647 74.5295 83.1861 76.1455 83.8106 77.6533C84.4352 79.1611 85.3506 80.5311 86.5046 81.685C87.6586 82.839 89.0285 83.7544 90.5363 84.379C92.0441 85.0035 93.6601 85.325 95.2921 85.325C96.9241 85.325 98.5401 85.0035 100.048 84.379C101.556 83.7544 102.926 82.839 104.08 81.685C105.234 80.5311 106.149 79.1611 106.774 77.6533C107.398 76.1455 107.719 74.5295 107.719 72.8975C107.719 69.6016 106.41 66.4406 104.08 64.11C101.749 61.7794 98.588 60.4701 95.2921 60.4701ZM84.3077 61.9132C87.2209 58.9999 91.1721 57.3633 95.2921 57.3633C99.412 57.3633 103.363 58.9999 106.276 61.9132C109.19 64.8264 110.826 68.7776 110.826 72.8975C110.826 74.9375 110.425 76.9575 109.644 78.8422C108.863 80.727 107.719 82.4394 106.276 83.8819C104.834 85.3244 103.121 86.4687 101.237 87.2493C99.3521 88.03 97.3321 88.4318 95.2921 88.4318C93.2521 88.4318 91.2321 88.03 89.3474 87.2493C87.4627 86.4687 85.7502 85.3244 84.3077 83.8819C82.8652 82.4394 81.721 80.727 80.9403 78.8422C80.1596 76.9575 79.7578 74.9375 79.7578 72.8975C79.7578 68.7776 81.3945 64.8264 84.3077 61.9132ZM89.0784 69.7907C89.0784 68.9328 89.7739 68.2373 90.6318 68.2373H90.6473C91.5053 68.2373 92.2008 68.9328 92.2008 69.7907C92.2008 70.6486 91.5053 71.3441 90.6473 71.3441H90.6318C89.7739 71.3441 89.0784 70.6486 89.0784 69.7907ZM98.3989 69.7907C98.3989 68.9328 99.0944 68.2373 99.9524 68.2373H99.9679C100.826 68.2373 101.521 68.9328 101.521 69.7907C101.521 70.6486 100.826 71.3441 99.9679 71.3441H99.9524C99.0944 71.3441 98.3989 70.6486 98.3989 69.7907Z" fill="#72C02C"/>
<path d="M88.9009 76.6258C88.9009 75.7433 89.6163 75.028 90.4987 75.028H100.086C100.968 75.028 101.683 75.7433 101.683 76.6258C101.683 77.5082 100.968 78.2236 100.086 78.2236H90.4987C89.6163 78.2236 88.9009 77.5082 88.9009 76.6258Z" fill="#72C02C"/>
<path d="M75.7993 54.8975H48.3189V52.0897H73.0028V30.7053L29.5958 30.7053V52.0897H48.3189V54.8975H26.7993V27.8975H75.7993V54.8975Z" fill="#72C02C"/>
<path d="M75.7993 30.4625H26.8052V17.8975L75.7993 17.8975V30.4625ZM29.6196 27.648H72.9849V20.6869H29.6196V27.648Z" fill="#72C02C"/>
<path d="M47.126 22.9009H44.3115V25.7153H47.126V22.9009Z" fill="#72C02C"/>
<path d="M41.4971 22.9009H38.6826V25.7153H41.4971V22.9009Z" fill="#72C02C"/>
<path d="M35.8682 22.9009H33.0537V25.7153H35.8682V22.9009Z" fill="#72C02C"/>
</svg>
