<svg width="74" height="52" viewBox="0 0 74 52" fill="none" xmlns="http://www.w3.org/2000/svg">
<path d="M23.839 24.2033L31.3313 0H14.4737L4.59752 21.92C0.681115 30.2922 0 33.1844 0 37.1422C0 45.8189 6.98142 51.7556 16.517 51.7556C25.8823 51.7556 32.8638 45.9711 32.8638 37.1422C32.8638 30.9011 29.4582 26.3345 23.839 24.2033ZM64.0247 24.2033L71.517 0H54.6594L44.7833 21.92C40.8669 30.2922 40.1857 33.1844 40.1857 37.1422C40.1857 45.8189 47.1672 51.7556 56.7028 51.7556C66.0681 51.7556 73.0495 45.9711 73.0495 37.1422C73.0495 30.9011 69.6439 26.3345 64.0247 24.2033Z" fill="#4F4959"/>
</svg>
