<svg width="69" height="101" viewBox="0 0 69 101" fill="none" xmlns="http://www.w3.org/2000/svg">
<path fill-rule="evenodd" clip-rule="evenodd" d="M14.0497 0H53.2191C53.7937 0 54.2597 0.472533 54.2599 1.05525V27.6609C54.2599 28.2437 53.7941 28.7161 53.2192 28.7161H24.1714L18.2918 38.5922C18.1019 38.911 17.7625 39.1021 17.4011 39.1021C17.3619 39.1021 17.3225 39.0999 17.283 39.0953C16.8787 39.0486 16.5383 38.767 16.4117 38.3749L13.0606 27.9889C13.0264 27.8829 13.009 27.7722 13.009 27.6607V1.05525C13.009 0.472395 13.4749 0 14.0497 0ZM23.5838 26.6056H52.1782H52.1784V2.1106H15.0906V27.4927L17.6837 35.5297L22.6928 27.1155C22.8812 26.7991 23.2192 26.6056 23.5838 26.6056Z" fill="#4F4959"/>
<path d="M47.5192 6.82849H20.4867C19.9118 6.82849 19.446 7.30089 19.446 7.88374C19.446 8.46659 19.9119 8.93898 20.4867 8.93898H47.5192C48.094 8.93898 48.5599 8.46659 48.5599 7.88374C48.5599 7.30089 48.0939 6.82849 47.5192 6.82849Z" fill="#4F4959"/>
<path d="M47.5192 13.0833H20.4867C19.9118 13.0833 19.446 13.5556 19.446 14.1385C19.446 14.7213 19.9119 15.1937 20.4867 15.1937H47.5192C48.094 15.1937 48.5599 14.7213 48.5599 14.1385C48.5599 13.5556 48.0939 13.0833 47.5192 13.0833Z" fill="#4F4959"/>
<path d="M47.5192 19.3379H20.4867C19.9118 19.3379 19.446 19.8103 19.446 20.3931C19.446 20.976 19.9119 21.4484 20.4867 21.4484H47.5192C48.094 21.4484 48.5599 20.976 48.5599 20.3931C48.5599 19.8103 48.0939 19.3379 47.5192 19.3379Z" fill="#4F4959"/>
<path fill-rule="evenodd" clip-rule="evenodd" d="M67.9293 33.6083H28.76C28.1853 33.6083 27.7193 34.0808 27.7191 34.6635V55.798C27.7191 56.3809 28.1849 56.8533 28.7598 56.8533H57.8076L63.6872 66.7294C63.8771 67.0482 64.2165 67.2392 64.578 67.2392C64.6171 67.2392 64.6565 67.237 64.696 67.2325C65.1003 67.1858 65.4407 66.9042 65.5673 66.5121L68.9184 56.1261C68.9526 56.0201 68.97 55.9093 68.97 55.7979V34.6635C68.97 34.0807 68.5041 33.6083 67.9293 33.6083ZM58.3952 54.7428H29.8007L29.8006 35.7189H66.8884V55.6299L64.2953 63.6669L59.2862 55.2526C59.0978 54.9363 58.7597 54.7428 58.3952 54.7428Z" fill="#4F4959"/>
<path d="M34.4601 41.2185H61.4925C62.0675 41.2185 62.5332 41.6909 62.5332 42.2738C62.5332 42.8566 62.0673 43.329 61.4925 43.329H34.4601C33.8852 43.329 33.4194 42.8566 33.4194 42.2738C33.4194 41.6909 33.8854 41.2185 34.4601 41.2185Z" fill="#4F4959"/>
<path d="M34.4601 48.2549H61.4925C62.0675 48.2549 62.5332 48.7273 62.5332 49.3101C62.5332 49.893 62.0673 50.3654 61.4925 50.3654H34.4601C33.8852 50.3654 33.4194 49.893 33.4194 49.3101C33.4194 48.7273 33.8854 48.2549 34.4601 48.2549Z" fill="#4F4959"/>
<path fill-rule="evenodd" clip-rule="evenodd" d="M20.88 64.7924H24.6278C28.4647 64.7924 31.5862 67.9576 31.5862 71.8483V80.1001C31.5862 80.6829 31.1204 81.1553 30.5456 81.1553H1.66276C1.08808 81.1553 0.62207 80.6831 0.62207 80.1001V71.8483C0.62207 67.9576 3.74359 64.7924 7.58049 64.7924H11.328V62.1836L9.06927 59.6612C7.96325 58.426 7.35394 56.8264 7.35394 55.1578V49.3269C7.35394 45.3723 10.5269 42.1549 14.4269 42.1549H17.781C21.6811 42.1549 24.8541 45.3724 24.8541 49.3269V55.1578C24.8541 56.8266 24.2449 58.426 23.1386 59.6612L20.88 62.1836V64.7924ZM2.70353 79.0447H29.5045V71.8481C29.5045 69.1215 27.3167 66.903 24.6276 66.903H19.839C19.2643 66.903 18.7983 66.4307 18.7983 65.8478V61.7182C18.7983 61.3417 18.9927 61.0114 19.2853 60.8247L21.5977 58.2423C22.3554 57.3963 22.7727 56.3008 22.7727 55.1578V49.327C22.7727 46.5362 20.5335 44.2656 17.7811 44.2656H14.4269C11.6747 44.2656 9.43553 46.5362 9.43553 49.327V55.1578C9.43553 56.3007 9.85279 57.3963 10.6104 58.2423L12.9228 60.8247C13.2154 61.0114 13.4098 61.3417 13.4098 61.7182V65.8478C13.4098 66.4306 12.9439 66.903 12.3691 66.903H7.58044C4.89125 66.903 2.70353 69.1215 2.70353 71.8481V79.0447Z" fill="#4F4959"/>
<path fill-rule="evenodd" clip-rule="evenodd" d="M53.3961 84.3829H57.1439C60.9808 84.3829 64.1024 87.5481 64.1024 91.4388V99.6905C64.1024 100.273 63.6365 100.746 63.0617 100.746H34.1789C33.6042 100.746 33.1382 100.274 33.1382 99.6905V91.4388C33.1382 87.5481 36.2597 84.3829 40.0966 84.3829H43.8441V81.7741L41.5854 79.2517C40.4794 78.0164 39.8701 76.4169 39.8701 74.7482V68.9174C39.8701 64.9627 43.043 61.7454 46.943 61.7454H50.2972C54.1972 61.7454 57.3702 64.9629 57.3702 68.9174V74.7482C57.3702 76.417 56.761 78.0164 55.6548 79.2517L53.3961 81.7741V84.3829ZM35.2196 98.635H62.0207V91.4385C62.0207 88.7118 59.8328 86.4933 57.1437 86.4933H52.3551C51.7804 86.4933 51.3144 86.0211 51.3144 85.4381V81.3085C51.3144 80.932 51.5088 80.6017 51.8014 80.415L54.1138 77.8327C54.8715 76.9866 55.2888 75.8912 55.2888 74.7482V68.9173C55.2888 66.1265 53.0496 63.856 50.2972 63.856H46.9431C44.1908 63.856 41.9516 66.1265 41.9516 68.9173V74.7482C41.9516 75.891 42.3689 76.9866 43.1265 77.8327L45.4389 80.415C45.7315 80.6017 45.9259 80.932 45.9259 81.3085V85.4381C45.9259 86.0209 45.46 86.4933 44.8852 86.4933H40.0966C37.4074 86.4933 35.2196 88.7118 35.2196 91.4385V98.635Z" fill="#4F4959"/>
</svg>
