<svg width="32" height="33" viewBox="0 0 32 33" fill="none" xmlns="http://www.w3.org/2000/svg">
<path fill-rule="evenodd" clip-rule="evenodd" d="M0 16.1861C0 7.26103 7.16961 0 15.9823 0C24.795 0 31.9646 7.26103 31.9646 16.1861C31.9646 25.1111 24.795 32.3722 15.9823 32.3722C7.16961 32.3722 0 25.1111 0 16.1861ZM1.82861 16.174C1.82861 24.0778 8.17792 30.5081 15.9824 30.5081C23.7868 30.5081 30.1361 24.0778 30.1361 16.174C30.1361 8.27022 23.7868 1.83989 15.9824 1.83989C8.17792 1.83989 1.82861 8.27022 1.82861 16.174Z" fill="white"/>
<rect x="8.64" y="8.64" width="14.72" height="14.72" rx="3.84" stroke="white" stroke-width="1.28"/>
<circle cx="15.9999" cy="15.9999" r="3.2" stroke="white" stroke-width="1.28"/>
<circle cx="20.1602" cy="11.8399" r="0.96" fill="white"/>
</svg>
