<svg width="282" height="60" viewBox="0 0 282 60" fill="none" xmlns="http://www.w3.org/2000/svg">
<g clip-path="url(#clip0_333_2180)">
<path d="M194.615 15.5825C192.229 13.1632 189.391 11.2438 186.265 9.93531C183.139 8.62677 179.786 7.95493 176.401 7.95858H176.278C172.423 7.9771 168.621 8.86176 165.149 10.5481C161.677 12.2344 158.622 14.6799 156.207 17.7063C150.048 9.05939 138.565 5.48774 128.194 9.21494C124.095 10.6668 120.474 13.2313 117.731 16.6254C111.495 8.87791 100.738 5.76693 90.7087 9.2289C88.9634 9.83345 87.2954 10.6441 85.7394 11.6439C84.8307 5.1228 79.2753 0.0495151 72.5875 -0.000340361C69.3322 -0.0156709 66.1823 1.16112 63.7243 3.31093C61.2662 5.46074 59.6675 8.43707 59.2258 11.6858C56.2903 9.80167 52.9887 8.57165 49.5426 8.07823C44.5023 7.35645 39.3636 8.21275 34.8227 10.5311C28.6853 7.34037 21.8668 6.97942 14.8702 9.52005C10.6031 11.0886 6.89135 13.8922 4.20098 17.5787C1.29265 21.5408 -0.183425 26.3855 0.017644 31.3089C0.0790181 32.8544 0.0631796 34.4577 0.0453614 36.1528C0.0354623 36.9804 0.0275431 37.808 0.0275431 38.6336V41.0267C0.0275431 43.1605 0.0275431 45.3681 0.0275431 47.5298C-0.00240873 49.6518 0.527051 51.7437 1.56189 53.5922C3.7971 57.5607 8.02597 59.9079 12.5043 59.9079C13.5901 59.9074 14.6715 59.7701 15.7235 59.4991C17.4191 59.0792 19.0066 58.3004 20.3802 57.2146C21.7539 56.1287 22.8822 54.7606 23.6902 53.2014C24.7812 55.2885 26.4414 57.0182 28.4754 58.1869C31.001 59.6149 33.9238 60.1638 36.7906 59.7484C38.7421 59.4867 40.6024 58.7552 42.2138 57.616C43.8253 56.4767 45.1405 54.9631 46.0482 53.2034C46.6324 54.3326 47.3894 55.3623 48.2913 56.2545C50.6671 58.6097 53.8961 59.882 57.3767 59.8441C60.091 59.8304 62.7289 58.9367 64.8999 57.2955C67.0869 58.9109 69.7331 59.7719 72.445 59.7504H72.5638C75.2672 59.7546 77.9019 58.8928 80.087 57.2895C82.2972 58.9628 84.988 59.8658 87.7529 59.8621C89.3026 59.8579 90.8391 59.5756 92.2906 59.0285C95.17 57.9899 97.555 55.8964 98.9704 53.1655C101.027 57.14 105.177 59.8142 110.057 59.8361H110.119C112.884 59.8588 115.581 58.9709 117.798 57.3075C119.981 58.9397 122.627 59.8188 125.345 59.8142C127.035 59.8107 128.708 59.4761 130.271 58.8291C133.106 57.6624 135.27 55.6722 136.573 53.1455C137.816 55.44 139.729 57.2946 142.052 58.4587C144.376 59.6228 146.998 60.0403 149.564 59.6547C152.554 59.182 155.149 57.8359 157.07 55.758C157.799 54.9682 158.418 54.0819 158.909 53.1236C163.528 57.4215 169.551 59.865 175.838 59.9917H176.304C183.108 59.9617 189.633 57.262 194.494 52.4655C196.932 50.0648 198.871 47.1992 200.198 44.0359C201.525 40.8726 202.213 37.4748 202.222 34.0407C202.232 30.6067 201.563 27.2051 200.254 24.0343C198.944 20.8635 197.022 17.987 194.597 15.5725L194.615 15.5825Z" fill="#303672"/>
<path d="M248.13 35.5711C248.13 33.521 248.13 31.4716 248.13 29.4229C248.13 28.9642 248.141 28.5454 248.779 28.5654C251.57 28.6591 254.384 28.2882 257.154 28.8147C259.806 29.3172 261.812 30.751 262.523 33.4632C263.253 36.2551 262.875 38.8695 260.575 40.8896C259.34 41.962 257.781 42.5813 256.152 42.6465C253.754 42.7722 251.347 42.6984 248.945 42.7363C248.264 42.7483 248.12 42.4132 248.124 41.817C248.141 39.735 248.13 37.653 248.13 35.5711ZM252.994 35.5312C252.994 36.4864 252.994 37.4436 252.994 38.3989C252.994 38.684 252.96 38.9971 253.323 39.1467C255.033 39.8706 257.48 38.4388 257.781 36.5263C258.236 33.6546 256.615 31.8618 253.724 31.9934C253.16 32.0194 252.974 32.2327 252.984 32.7632C253.008 33.6865 252.994 34.6099 252.994 35.5312Z" fill="#33B0AB"/>
<path d="M227.46 28.5631C225.934 30.2821 224.586 31.8017 223.237 33.3173C223.15 33.417 223.039 33.5028 222.956 33.5965C221.925 34.6654 221.935 34.6734 222.883 35.846C224.524 37.8734 226.156 39.9075 227.781 41.9483C227.918 42.1198 228.189 42.2694 228.086 42.5226C227.959 42.8337 227.631 42.722 227.385 42.722C226.067 42.732 224.748 42.7121 223.425 42.732C223.196 42.7483 222.966 42.7047 222.758 42.6056C222.55 42.5064 222.371 42.3549 222.238 42.1657C221.273 40.9073 220.303 39.6529 219.302 38.4265C219.076 38.1513 218.925 37.579 218.434 37.7824C218.187 37.8817 217.978 38.0587 217.838 38.2871C217.698 38.5156 217.635 38.7833 217.658 39.0507C217.688 39.9421 217.637 40.8455 217.672 41.7309C217.702 42.4389 217.462 42.7659 216.712 42.728C215.659 42.6861 214.603 42.6981 213.544 42.728C212.95 42.744 212.74 42.4947 212.742 41.9044C212.758 37.7006 212.758 33.4975 212.742 29.295C212.742 28.8223 212.857 28.5432 213.4 28.5531C214.588 28.5731 215.776 28.5731 216.963 28.5531C217.557 28.5412 217.666 28.8742 217.662 29.3708C217.619 30.7817 217.685 32.194 217.86 33.5945C218.989 32.2823 220.157 31.002 221.226 29.642C221.854 28.8443 222.533 28.4594 223.568 28.5372C224.79 28.6309 225.999 28.5631 227.46 28.5631Z" fill="#33B0AB"/>
<path d="M275.829 43.0511C273.916 43.1747 272.265 42.4708 270.681 41.5335C270.248 41.2782 270.074 40.9512 270.272 40.4606C270.321 40.3389 270.343 40.2073 270.385 40.0817C270.638 39.3299 270.68 38.2869 271.202 37.908C271.796 37.4792 272.402 38.5063 273.077 38.7695C274.17 39.1983 275.255 39.5034 276.443 39.3678C276.853 39.3199 277.276 39.1903 277.338 38.7336C277.399 38.2769 276.985 38.0456 276.605 37.9359C275.629 37.6368 274.625 37.4374 273.663 37.0904C270.297 35.8759 269.335 32.1986 271.683 29.7018C272.497 28.8343 273.574 28.5053 274.681 28.3058C276.73 27.9549 278.67 28.4095 280.541 29.2591C281.089 29.5084 281.26 29.8474 281.046 30.4357C280.777 31.1795 280.788 32.1866 280.286 32.6473C279.638 33.2455 278.933 32.2085 278.175 32.0968C277.464 31.9912 276.769 31.7578 276.037 31.7758C275.623 31.7758 275.188 31.8496 275.124 32.3382C275.061 32.8267 275.52 32.8925 275.851 32.9982C276.825 33.3034 277.831 33.5367 278.781 33.8837C280.959 34.6694 282.103 36.3764 281.996 38.5761C281.903 40.5005 280.424 42.2215 278.351 42.7639C277.533 43.0068 276.68 43.1039 275.829 43.0511Z" fill="#33B0AB"/>
<path d="M239.498 35.6545C239.498 37.6726 239.472 39.6927 239.512 41.7109C239.525 42.4866 239.266 42.7798 238.486 42.7419C237.433 42.692 236.376 42.718 235.318 42.7419C234.782 42.7419 234.54 42.5425 234.542 41.9821C234.551 37.7464 234.551 33.5107 234.542 29.275C234.542 28.7684 234.74 28.561 235.251 28.569C236.372 28.583 237.494 28.6049 238.617 28.559C239.339 28.5291 239.514 28.8522 239.504 29.5063C239.482 31.5504 239.498 33.6024 239.498 35.6545Z" fill="#33B0AB"/>
<path d="M59.4062 22.6782C54.0765 14.9746 42.9381 13.5048 35.5376 19.5134C34.9971 19.9521 34.7081 19.9581 34.1517 19.5254C29.0933 15.6107 23.5162 14.8609 17.559 17.0246C12.0927 19.0188 7.65992 24.4032 7.93313 30.9841C8.0341 33.5288 7.94897 36.0794 7.94897 38.628C7.94897 41.6053 7.94897 44.5847 7.94897 47.5621C7.92481 48.2921 8.09575 49.0153 8.44392 49.656C9.43383 51.4049 11.6809 52.3063 13.7577 51.7699C15.8345 51.2334 17.1333 49.6241 17.1353 47.4624C17.1353 41.9025 17.1115 36.3446 17.1353 30.7847C17.159 27.0835 20.0535 24.3434 23.7795 24.4032C27.5055 24.4631 30.2238 27.1951 30.2258 30.8725C30.2258 36.3313 30.2258 41.7908 30.2258 47.251C30.2013 47.7802 30.2608 48.31 30.402 48.8204C31.0989 50.9502 33.247 52.1926 35.6801 51.8516C36.7346 51.7138 37.703 51.1934 38.4038 50.388C39.1047 49.5826 39.4899 48.5473 39.4873 47.4763C39.5091 41.8925 39.4873 36.2908 39.4873 30.699C39.4632 30.1037 39.5239 29.508 39.6675 28.9301C40.5485 25.869 43.7162 23.9685 47.1373 24.469C50.2951 24.9297 52.5323 27.5042 52.5323 30.691C52.5323 36.2509 52.5164 41.8087 52.5422 47.3686C52.5541 50.0449 54.5378 51.8975 57.2541 51.8656C59.9209 51.8317 61.7918 49.9571 61.7938 47.2928C61.7938 41.6333 61.8097 35.9757 61.7938 30.3161C61.8023 27.5825 60.968 24.9137 59.4062 22.6782Z" fill="#FCFCFC"/>
<path d="M176.316 15.9357C166.417 15.9836 158.412 24.0522 158.414 33.9754C158.414 43.8089 166.393 51.8396 175.995 52.0191C185.645 52.2006 194.294 44.3693 194.31 34.0053C194.324 24.0741 186.163 15.8899 176.316 15.9357ZM176.357 43.4958C174.491 43.5009 172.666 42.9483 171.112 41.9078C169.558 40.8673 168.345 39.3858 167.627 37.6507C166.909 35.9157 166.719 34.0051 167.08 32.161C167.44 30.3168 168.336 28.6219 169.654 27.2909C170.971 25.9598 172.651 25.0524 174.481 24.6836C176.311 24.3148 178.208 24.5011 179.933 25.2189C181.657 25.9367 183.132 27.1539 184.169 28.7162C185.207 30.2785 185.761 32.1157 185.761 33.9954C185.753 36.5076 184.761 38.915 182.999 40.6941C181.238 42.4732 178.851 43.48 176.357 43.4958Z" fill="#FCFCFC"/>
<path d="M150.426 23.3424C146.53 16.8672 138.209 14.0892 130.865 16.7276C124.95 18.8554 120.468 24.4073 120.786 31.1039C120.903 33.5468 120.806 35.9997 120.806 38.4486C120.806 41.4599 120.818 44.4711 120.806 47.4824C120.793 48.0295 120.891 48.5735 121.096 49.0806C121.3 49.5876 121.606 50.0469 121.994 50.4298C122.679 51.1056 123.546 51.5629 124.488 51.7445C125.43 51.9261 126.404 51.824 127.288 51.4509C129.082 50.711 130.06 49.2393 130.06 47.1673C130.072 41.6094 130.06 36.0495 130.06 30.4917C130.036 29.8971 130.108 29.3026 130.272 28.7308C131.204 25.8292 134.358 23.8928 137.436 24.3594C140.869 24.8799 143.107 27.3627 143.109 30.6632C143.109 36.1233 143.109 41.5828 143.109 47.0417C143.109 47.6399 143.109 48.2262 143.307 48.8046C143.994 50.8127 146.191 52.1209 148.341 51.7819C150.82 51.3831 152.356 49.7578 152.366 47.3946C152.386 41.6393 152.4 35.882 152.366 30.1247C152.346 27.7279 151.675 25.3823 150.426 23.3424Z" fill="#FCFCFC"/>
<path d="M113.069 23.8587C109.198 16.8231 100.665 14.2266 93.2807 16.7752C87.4937 18.7694 82.8471 24.2835 83.1837 31.1137C83.3005 33.5227 83.2035 35.9417 83.2035 38.3566C83.2035 41.3998 83.2035 44.445 83.2035 47.4882C83.1821 48.018 83.2658 48.5468 83.4497 49.0436C83.6336 49.5405 83.9141 49.9954 84.2746 50.3818C85.5773 51.7777 87.6937 52.2484 89.5567 51.5544C91.3643 50.8803 92.4551 49.3129 92.4611 47.2509C92.4789 41.693 92.4611 36.1351 92.4611 30.5772C92.4388 30.0155 92.4961 29.4535 92.6313 28.908C93.4708 25.9746 96.591 23.9744 99.6894 24.4011C103.213 24.8857 105.498 27.3366 105.502 30.665C105.502 36.2488 105.488 41.8465 105.502 47.4363C105.514 49.9929 107.482 51.8535 110.089 51.8655C112.772 51.8774 114.726 50.0148 114.732 47.3885C114.744 41.667 114.752 35.9436 114.732 30.2202C114.725 27.9916 114.152 25.8018 113.069 23.8587Z" fill="#FCFCFC"/>
<path d="M72.4612 22.5606C69.733 22.5606 67.8641 24.4232 67.8582 27.1572C67.8582 30.4955 67.8582 33.8359 67.8582 37.1742C67.8582 40.5125 67.8483 43.8548 67.8582 47.1931C67.8681 49.9013 69.7964 51.7938 72.4909 51.7798C75.1854 51.7659 77.1039 49.8813 77.1078 47.1692C77.1197 40.4899 77.1197 33.8106 77.1078 27.1313C77.1078 24.4092 75.1993 22.5566 72.4612 22.5606Z" fill="#FCFCFC"/>
<path d="M72.5301 7.97705C71.8065 7.97679 71.09 8.12008 70.4214 8.39875C69.7529 8.67742 69.1453 9.086 68.6335 9.60117C68.1217 10.1163 67.7156 10.728 67.4385 11.4013C67.1614 12.0745 67.0186 12.7961 67.0183 13.525C67.0045 14.2575 67.1358 14.9855 67.4045 15.6663C67.6733 16.3471 68.0741 16.9672 68.5835 17.4901C69.0929 18.0131 69.7007 18.4286 70.3714 18.7121C71.0421 18.9957 71.7621 19.1418 72.4895 19.1418C73.2169 19.1418 73.937 18.9957 74.6076 18.7121C75.2783 18.4286 75.8861 18.0131 76.3956 17.4901C76.905 16.9672 77.3058 16.3471 77.5745 15.6663C77.8433 14.9855 77.9745 14.2575 77.9607 13.525C77.9517 12.0698 77.3791 10.6756 76.3647 9.63932C75.3504 8.60308 73.9745 8.00665 72.5301 7.97705Z" fill="#FCFCFC"/>
<path d="M179.371 27.9951C178.975 27.9853 178.582 28.0545 178.213 28.1988C177.844 28.343 177.508 28.5595 177.223 28.8356C176.937 29.1117 176.709 29.442 176.552 29.8074C176.394 30.1728 176.31 30.5661 176.304 30.9644C176.294 31.3629 176.363 31.7595 176.509 32.1301C176.654 32.5008 176.873 32.8379 177.151 33.1213C177.43 33.4047 177.762 33.6284 178.129 33.779C178.495 33.9296 178.888 34.004 179.284 33.9976C181.004 34.0116 182.313 32.7513 182.344 31.0522C182.351 30.654 182.279 30.2585 182.133 29.8885C181.987 29.5185 181.769 29.1815 181.492 28.8971C181.216 28.6126 180.886 28.3864 180.521 28.2316C180.157 28.0767 179.766 27.9963 179.371 27.9951Z" fill="#FCFCFC"/>
</g>
<defs>
<clipPath id="clip0_333_2180">
<rect width="282" height="60" fill="white"/>
</clipPath>
</defs>
</svg>
