<svg width="115" height="142" viewBox="0 0 115 142" fill="none" xmlns="http://www.w3.org/2000/svg">
<path d="M57.251 105.785C54.29 105.849 51.3463 105.308 48.5925 104.194C45.8386 103.08 43.3301 101.416 41.2138 99.298C39.0976 97.1802 37.4162 94.6519 36.2684 91.8612C35.1205 89.0706 34.5293 86.0738 34.5293 83.0465C34.5293 80.0192 35.1205 77.0224 36.2684 74.2318C37.4162 71.4411 39.0976 68.9128 41.2138 66.795C43.3301 64.6772 45.8386 63.0126 48.5925 61.8987C51.3463 60.7849 54.29 60.2442 57.251 60.3083V64.9081C53.7399 64.9081 50.3077 65.9724 47.3885 67.9665C44.4694 69.9606 42.1943 72.7948 40.8511 76.1107C39.508 79.4266 39.1571 83.0752 39.8428 86.595C40.5285 90.1147 42.22 93.3476 44.7034 95.8847C47.1868 98.4217 50.3504 100.149 53.7943 100.848C57.2381 101.547 60.8073 101.186 64.0505 99.8111C67.2938 98.4363 70.0652 96.1092 72.0144 93.1242C73.9636 90.1391 75.003 86.6303 75.001 83.0414H79.501C79.493 89.0708 77.1463 94.8509 72.9753 99.1144C68.8044 103.378 63.1496 105.777 57.251 105.785Z" fill="#72C02C"/>
<path d="M89.1209 40.0691C79.9468 32.9719 68.7563 29.1311 57.2509 29.1311C45.7456 29.1311 34.555 32.9719 25.3809 40.0691L22.6609 36.4097C32.6161 28.7024 44.7625 24.5312 57.2509 24.5312C69.7393 24.5312 81.8856 28.7024 91.8409 36.4097L89.1209 40.0691Z" fill="#72C02C"/>
<path d="M57.2509 141.571C46.594 141.569 36.1489 138.528 27.0912 132.788C18.0334 127.049 10.7223 118.84 5.98051 109.084C1.23871 99.3288 -0.745574 88.4142 0.250892 77.5687C1.24736 66.7233 5.18505 56.3773 11.6209 47.6948L15.2109 50.4752C8.22844 59.8321 4.46363 71.2836 4.50089 83.0518C4.50089 97.3521 10.0584 111.067 19.951 121.179C29.8435 131.29 43.2607 136.971 57.2509 136.971C71.2411 136.971 84.6582 131.29 94.5508 121.179C104.443 111.067 110.001 97.3521 110.001 83.0518C110.035 71.2824 106.267 59.8307 99.2809 50.4752L102.871 47.6948C110.453 57.8488 114.541 70.2782 114.501 83.0518C114.482 98.5662 108.445 113.44 97.7123 124.41C86.9798 135.381 72.4288 141.552 57.2509 141.571Z" fill="#72C02C"/>
<path d="M57.251 131.338C47.9058 131.338 38.7705 128.506 31.0003 123.199C23.23 117.892 17.1739 110.349 13.5977 101.523C10.0214 92.6982 9.08575 82.9872 10.9089 73.6184C12.732 64.2496 17.2321 55.6437 23.8402 48.8892C30.4482 42.1347 38.8674 37.5348 48.033 35.6712C57.1986 33.8076 66.699 34.7641 75.3328 38.4196C83.9666 42.0751 91.346 48.2656 96.5379 56.2081C101.73 64.1506 104.501 73.4884 104.501 83.0408C104.488 95.846 99.5054 108.123 90.6472 117.177C81.789 126.232 69.7784 131.325 57.251 131.338ZM57.251 39.343C48.7954 39.343 40.5297 41.9061 33.4993 46.7081C26.4689 51.5101 20.9895 58.3354 17.7542 66.3207C14.5188 74.306 13.6728 83.0928 15.3231 91.5696C16.9735 100.046 21.046 107.833 27.0257 113.943C33.0054 120.054 40.6237 124.215 48.917 125.9C57.2104 127.585 65.8063 126.718 73.6176 123.409C81.429 120.1 88.1049 114.498 92.8012 107.311C97.4974 100.123 100.003 91.6736 100.001 83.0306C99.9851 71.448 95.4753 60.3449 87.461 52.1567C79.4467 43.9686 68.5823 39.364 57.251 39.3532V39.343Z" fill="#72C02C"/>
<path d="M101.625 34.4557L87.4827 48.9116L90.6646 52.1642L104.807 37.7083L101.625 34.4557Z" fill="#72C02C"/>
<path d="M99.4852 29.0096L96.3032 32.2622L106.91 43.1043L110.092 39.8517L99.4852 29.0096Z" fill="#72C02C"/>
<path d="M12.8687 34.4369L9.68677 37.6895L23.8289 52.1454L27.0109 48.8928L12.8687 34.4369Z" fill="#72C02C"/>
<path d="M14.9944 29.0344L4.38599 39.8745L7.56741 43.1277L18.1759 32.2876L14.9944 29.0344Z" fill="#72C02C"/>
<path d="M59.491 9.45508H54.991V26.8318H59.491V9.45508Z" fill="#72C02C"/>
<path d="M68.251 18.9102H46.251C43.7977 18.9102 41.4449 17.914 39.7102 16.1408C37.9755 14.3676 37.001 11.9627 37.001 9.45508C37.001 6.94744 37.9755 4.5425 39.7102 2.76933C41.4449 0.996154 43.7977 0 46.251 0H68.251C70.7042 0 73.057 0.996154 74.7917 2.76933C76.5264 4.5425 77.501 6.94744 77.501 9.45508C77.501 11.9627 76.5264 14.3676 74.7917 16.1408C73.057 17.914 70.7042 18.9102 68.251 18.9102ZM46.251 4.59977C44.9912 4.59977 43.783 5.1113 42.8922 6.02185C42.0014 6.9324 41.501 8.16737 41.501 9.45508C41.501 10.7428 42.0014 11.9777 42.8922 12.8883C43.783 13.7988 44.9912 14.3104 46.251 14.3104H68.251C69.1921 14.3138 70.1129 14.0307 70.8961 13.4973C71.6792 12.9639 72.2894 12.2042 72.6487 11.3151C73.008 10.426 73.1002 9.44761 72.9136 8.50472C72.727 7.56182 72.2701 6.69706 71.601 6.02057C71.1628 5.56827 70.6409 5.20971 70.0657 4.96577C69.4906 4.72183 68.8737 4.59741 68.251 4.59977H46.251Z" fill="#72C02C"/>
<path d="M101.625 34.4557L87.4827 48.9116L90.6646 52.1642L104.807 37.7083L101.625 34.4557Z" fill="#72C02C"/>
<path d="M12.8687 34.4369L9.68677 37.6895L23.8289 52.1454L27.0109 48.8928L12.8687 34.4369Z" fill="#72C02C"/>
<path d="M57.251 91.4736C55.6193 91.4736 54.0242 90.979 52.6675 90.0524C51.3108 89.1258 50.2534 87.8087 49.629 86.2677C49.0046 84.7268 48.8412 83.0312 49.1595 81.3953C49.4778 79.7595 50.2635 78.2568 51.4173 77.0774C52.5711 75.8981 54.0411 75.0949 55.6415 74.7695C57.2418 74.4441 58.9006 74.6111 60.4081 75.2494C61.9156 75.8876 63.2041 76.9686 64.1106 78.3554C65.0171 79.7422 65.501 81.3726 65.501 83.0405C65.4983 85.2763 64.6283 87.4197 63.0817 89.0006C61.5351 90.5816 59.4382 91.4709 57.251 91.4736ZM57.251 79.2073C56.5093 79.2073 55.7842 79.4321 55.1676 79.8533C54.5509 80.2745 54.0703 80.8732 53.7864 81.5736C53.5026 82.2741 53.4283 83.0448 53.573 83.7883C53.7177 84.5319 54.0749 85.215 54.5993 85.7511C55.1238 86.2871 55.7919 86.6522 56.5194 86.8001C57.2468 86.948 58.0008 86.8721 58.686 86.582C59.3713 86.2918 59.9569 85.8005 60.369 85.1701C60.781 84.5398 61.001 83.7987 61.001 83.0405C60.9983 82.0247 60.6024 81.0513 59.8997 80.333C59.197 79.6147 58.2447 79.21 57.251 79.2073Z" fill="#72C02C"/>
<path d="M84.1809 80.752H63.241V85.3516H84.1809V80.752Z" fill="#72C02C"/>
<path d="M59.491 44.771H54.991V49.8821H59.491V44.771Z" fill="#72C02C"/>
<path d="M66.6476 45.9107L65.1025 50.7715L69.3823 52.1929L70.9274 47.3321L66.6476 45.9107Z" fill="#72C02C"/>
<path d="M77.4036 50.6754L74.4653 54.8105L78.1064 57.5135L81.0446 53.3783L77.4036 50.6754Z" fill="#72C02C"/>
<path d="M86.2116 58.7603L82.166 61.7637L84.8104 65.4854L88.856 62.4821L86.2116 58.7603Z" fill="#72C02C"/>
<path d="M92.1647 69.0227L87.4094 70.6021L88.8 74.9766L93.5553 73.3973L92.1647 69.0227Z" fill="#72C02C"/>
<path d="M94.6809 80.752H89.6809V85.3516H94.6809V80.752Z" fill="#72C02C"/>
</svg>
